<svg width="24" height="24" viewBox="0 0 24 24" fill="none" xmlns="http://www.w3.org/2000/svg">
  <path d="M12 2C6.48 2 2 6.48 2 12s4.48 10 10 10c1.1 0 2-.9 2-2 0-.51-.19-.98-.51-1.34-.3-.33-.49-.78-.49-1.26 0-.96.78-1.74 1.74-1.74H17c2.76 0 5-2.24 5-5 0-4.42-4.48-8-10-8z" stroke="currentColor" stroke-width="2" stroke-linecap="round" stroke-linejoin="round"/>
  <circle cx="6.5" cy="11.5" r="1.5" fill="currentColor"/>
  <circle cx="9.5" cy="7.5" r="1.5" fill="currentColor"/>
  <circle cx="14.5" cy="7.5" r="1.5" fill="currentColor"/>
  <circle cx="17.5" cy="11.5" r="1.5" fill="currentColor"/>
</svg>
